<?xml version="1.0" encoding="utf-8"?>
<svg width="375px" height="329px" viewBox="0 0 375 329" version="1.1" xmlns:xlink="http://www.w3.org/1999/xlink" xmlns="http://www.w3.org/2000/svg">
  <defs>
    <path d="M0 0L238.933 0L238.933 268.165L0 268.165L0 0Z" id="path_1" />
    <clipPath id="mask_1">
      <use xlink:href="#path_1" />
    </clipPath>
  </defs>
  <g id="Group">
    <g id="Asset-1" transform="translate(136.0668 33.127625)">
      <path d="M0 0L238.933 0L238.933 268.165L0 268.165L0 0Z" id="Background" fill="none" fill-rule="evenodd" stroke="none" />
      <g clip-path="url(#mask_1)">
        <g id="Layer_2" transform="translate(-0.0029296875 0.0068359375)">
          <g id="Layer_1-2">
            <path d="M21.0652 118.065C6.81667 104.694 0.160199 86.5589 0.00307191 68.5256C-0.104519 56.6219 2.61557 44.8695 7.9314 34.2692C13.197 23.6385 21.2892 14.7286 31.2856 8.55516C45.27 0.0513517 63.4324 -2.91662 84.8803 3.35395L84.8803 3.35395L85.0588 3.41214L119.463 12.6288L154.066 3.36122L154.066 3.36122L154.145 3.36122L154.145 3.36122L154.245 3.36122C175.614 -2.91662 193.712 0.0804494 207.661 8.55517C217.654 14.733 225.746 23.6423 231.016 34.2703C236.329 44.8712 239.047 56.6237 238.936 68.5256C238.786 86.5589 232.123 104.694 217.881 118.065L208.496 194.519L208.496 194.519L208.496 194.519L208.496 194.519C208.496 194.592 208.496 194.664 208.496 194.737C206.889 209.671 203.897 221.652 200.24 231.298C195.512 243.723 189.641 252.234 184.142 258.025C172.3 270.486 163.358 270.348 156.416 263.502C147.281 254.489 143.503 232.324 140.603 215.309C140.01 211.81 139.453 208.537 138.882 205.605L138.882 205.605C138.844 205.393 138.821 205.18 138.811 204.965C136.732 188.699 132.833 179.832 128.776 175.096C125.305 171.051 121.848 170.353 119.655 170.433L119.655 170.433C119.465 170.448 119.274 170.448 119.084 170.433C116.884 170.433 113.57 171.226 110.242 175.103C106.157 179.868 102.228 188.83 100.157 205.321L96.0934 204.798L100.172 205.329C100.151 205.485 100.123 205.641 100.086 205.794C99.5288 208.704 98.986 211.89 98.4003 215.316C95.5006 232.331 91.7296 254.497 82.5876 263.51C75.6455 270.355 66.7106 270.493 54.8618 258.032C49.3624 252.212 43.4987 243.73 38.7706 231.306C35.0852 221.631 32.0855 209.555 30.4857 194.512L30.4857 194.512L30.4857 194.453L30.4857 194.453L30.4857 194.41L21.0652 118.065Z" id="Shape" fill="#FFFFFF" fill-rule="evenodd" stroke="none" />
          </g>
        </g>
      </g>
    </g>
    <path d="M163.13 52.052L163.13 47.5647L118.959 48.9109L13.0878 48.9109L22.2025 0L263.859 0L263.859 17.5002L124.801 243.433L100.028 277.536L100.028 281.574L143.498 279.779L273.441 279.779L264.326 328.69L0 328.69L0 311.639L137.655 86.3793L163.13 52.052Z" id="Z" fill="#10B981" fill-rule="evenodd" stroke="none" />
  </g>
</svg>